<svg width="496" height="496" viewBox="0 0 496 496" fill="none" xmlns="http://www.w3.org/2000/svg">
    <path
        d="M352 0C431.529 5.66954e-06 496 64.471 496 144V352C496 431.529 431.529 496 352 496H144C64.471 496 0 431.529 0 352V144C5.67101e-06 64.471 64.471 0 144 0H352ZM290.429 94C287.979 94 285.51 94.1702 283.088 94.5107C269.038 96.4877 256.344 104.215 247.995 115.613C238.148 102.135 222.448 94 205.562 94C183.482 94 163.976 107.659 156.296 128.231C144.055 131.637 133.189 138.504 124.755 148.181C114.399 160.061 108.707 175.309 108.707 191.114C108.707 192.703 108.764 194.292 108.887 195.891C92.6313 208.206 83 227.493 83 248C83 265.215 89.5208 281.286 101.413 293.497C100.753 297.233 100.424 301.055 100.424 304.886C100.424 337.509 125.085 365.432 157.04 369.613C165.201 389.089 184.368 402 205.562 402C222.448 402 238.148 393.875 247.995 380.387C257.843 393.865 273.542 402 290.429 402C293.953 402 297.487 401.641 300.945 400.932C318.718 397.281 333.363 384.681 339.695 367.769C349.392 365.063 358.42 360.069 365.911 353.259C367.777 351.566 369.567 349.73 371.235 347.819C381.592 335.939 387.283 320.691 387.283 304.886C387.283 303.297 387.226 301.698 387.113 300.118C403.369 287.803 413 268.507 413 248C413 230.785 406.479 214.724 394.587 202.503C395.247 198.757 395.576 194.936 395.576 191.114C395.576 158.481 370.915 130.569 338.95 126.388C330.78 106.902 311.613 94 290.429 94ZM290.354 119.095C303.132 119.095 314.704 128.09 317.418 140.916C317.785 142.883 318.332 146.099 318.389 147.111C318.351 160.051 308.965 171.346 296.093 173.966C290.316 175.139 286.123 180.275 286.123 186.338C286.123 190.102 287.79 193.64 290.702 196.023C293.567 198.379 297.29 199.306 300.88 198.568C323.251 194.028 340.11 175.233 342.701 152.825C359.117 158.056 370.585 173.445 370.585 191.104C370.585 195.191 369.982 199.211 368.785 203.052L366.25 211.233L372.912 216.577C382.496 224.258 387.99 235.713 387.99 247.99C387.99 262.491 380.15 275.922 367.522 283.045L359.521 287.557L361.426 296.562C361.991 299.286 362.283 302.086 362.283 304.886C362.283 319.225 354.395 332.572 342.183 339.694C338.385 318.8 322.242 301.878 301.134 297.479C297.431 296.704 293.614 297.64 290.684 300.033C287.781 302.398 286.123 305.917 286.123 309.842C286.123 315.725 290.298 320.852 296.046 322.044C308.843 324.683 318.162 335.949 318.304 349.172L317.512 354.62C314.769 368.496 302.189 378.06 287.988 376.802C273.863 375.563 262.809 363.152 262.809 348.548V147.424C262.809 133.794 272.223 122.083 285.189 119.586C286.923 119.255 288.648 119.095 290.354 119.095ZM178.479 141.37C181.221 127.503 193.867 117.988 207.983 119.189C222.109 120.419 233.182 132.829 233.182 147.434V348.52C233.182 362.556 223.033 374.635 209.576 376.603C195.196 378.665 181.56 369.216 178.582 355.084C178.243 353.249 177.678 349.929 177.593 348.869C176.509 335.126 188.1 324.437 199.926 322.034C205.702 320.861 209.887 315.735 209.887 309.653C209.887 305.889 208.218 302.35 205.307 299.967C203.083 298.141 200.35 297.177 197.552 297.177C196.751 297.177 195.931 297.252 195.13 297.413C172.759 301.953 155.9 320.748 153.309 343.166C136.893 337.935 125.425 322.545 125.425 304.886C125.425 300.8 126.028 296.78 127.225 292.939L129.759 284.757L123.087 279.403C113.503 271.713 108 260.268 108 247.99C108 233.49 115.841 220.058 128.468 212.945L136.459 208.434L134.574 199.429C133.999 196.686 133.708 193.885 133.708 191.104C133.708 176.774 141.596 163.428 153.799 156.306C155.702 166.805 160.744 176.519 168.349 184.152C175.661 191.492 184.82 196.459 194.847 198.53C198.569 199.296 202.385 198.369 205.307 195.967C208.2 193.602 209.858 190.093 209.858 186.158C209.858 180.284 205.665 175.148 199.889 173.946C194.64 172.859 189.843 170.248 186.008 166.398C180.25 160.6 177.207 153.468 177.678 146.847C177.781 145.459 178.485 141.387 178.479 141.37Z"
        fill="black" />
</svg>