<svg width="496" height="496" viewBox="0 0 496 496" fill="none" xmlns="http://www.w3.org/2000/svg">
    <path
        d="M352 0C431.529 5.66954e-06 496 64.471 496 144V352C496 431.529 431.529 496 352 496H144C64.471 496 0 431.529 0 352V144C5.67101e-06 64.471 64.471 0 144 0H352ZM323.809 107.062C320.635 106.556 319.395 109.241 318.153 111.483C313.159 120.643 311.241 130.751 311.415 140.984C311.854 163.978 321.515 182.298 340.678 195.344C342.862 196.828 343.427 198.344 342.735 200.523C341.433 205.008 339.877 209.368 338.495 213.853C337.631 216.728 336.327 217.358 333.281 216.096C322.757 211.674 313.661 205.136 305.635 197.207C292.001 183.941 279.67 169.286 264.292 157.82C260.679 155.135 257.083 152.639 253.344 150.271C237.652 134.92 255.403 122.318 259.501 120.833C263.805 119.285 260.993 113.916 247.107 113.979C233.238 114.043 220.531 118.717 204.352 124.939C201.981 125.887 199.499 126.582 196.938 127.119C182.252 124.34 167 123.707 151.057 125.508C121.055 128.888 97.085 143.164 79.4609 167.548C58.3029 196.828 53.3234 230.12 59.418 264.863C65.8267 301.439 84.3775 331.761 112.902 355.451C142.464 379.994 176.519 392.027 215.363 389.721C238.956 388.362 265.235 385.173 294.859 359.936C302.335 363.663 310.173 365.148 323.195 366.285C333.218 367.233 342.863 365.78 350.339 364.23C362.04 361.737 361.224 350.839 356.999 348.817C322.694 332.741 330.217 339.279 323.368 334.004C340.804 313.222 367.082 291.648 377.355 221.781C378.156 216.222 377.465 212.748 377.355 208.231C377.293 205.515 377.906 204.44 381.015 204.125C389.607 203.145 397.949 200.776 405.613 196.513C427.84 184.288 436.793 164.233 438.913 140.164C439.228 136.5 438.85 132.678 435.003 130.751C430.95 128.761 429.206 132.552 426.835 134.479C426.034 135.11 425.342 135.931 424.667 136.657C418.745 143.038 411.833 147.208 402.817 146.702C389.607 145.976 378.345 150.145 368.387 160.315C366.265 147.776 359.228 140.29 348.532 135.489C342.925 132.994 337.254 130.498 333.344 125.065C330.595 121.212 329.856 116.917 328.473 112.685C327.609 110.126 326.73 107.504 323.809 107.062ZM89.8594 209.494C97.8858 208.01 106.18 207.694 114.206 208.861C148.135 213.852 177.021 229.14 201.227 253.304C215.05 267.106 225.511 283.562 236.286 299.639C247.737 316.727 260.067 332.993 275.759 346.322C281.287 350.998 285.717 354.567 289.942 357.188C277.189 358.61 255.888 358.925 241.328 347.333C208.076 321.024 191.959 312.368 185.3 312.748C179.078 313.094 180.194 320.264 181.56 324.939C182.989 329.55 184.859 332.741 187.482 336.784C189.289 339.469 190.53 343.479 185.676 346.448C174.963 353.145 156.351 344.207 155.471 343.764C133.81 330.941 115.699 313.979 102.929 290.795C90.6139 268.465 83.4505 244.522 82.2725 218.969C81.9584 212.779 83.7651 210.599 89.8594 209.494ZM258.574 221.465C264.23 218.213 270.764 219.287 276.812 221.719C282.418 224.023 286.644 228.255 292.738 234.226C298.974 241.459 300.09 243.481 303.64 248.881C306.435 253.145 308.997 257.504 310.74 262.494C311.792 265.589 310.426 268.148 306.749 269.728C303.577 271.023 300.404 272.16 297.357 272.286C292.629 272.508 287.461 270.579 284.649 268.212C280.299 264.547 277.189 262.494 275.868 256.051C275.318 253.303 275.633 249.071 276.119 246.639C277.251 241.395 275.994 238.047 272.335 234.984C269.335 232.489 265.548 231.826 261.371 231.826C259.816 231.826 258.386 231.131 257.318 230.562C255.575 229.677 254.145 227.498 255.512 224.813C255.951 223.96 258.072 221.845 258.574 221.465ZM262.187 239.216C262.799 239.216 263.366 239.342 263.868 239.531C264.544 239.783 265.172 240.164 265.659 240.731C266.537 241.585 267.041 242.848 267.041 244.144C267.041 246.891 264.858 249.071 262.124 249.071C259.375 249.071 257.256 246.891 257.256 244.144C257.256 241.395 259.438 239.216 262.187 239.216Z"
        fill="black" />
</svg>