<svg xmlns="http://www.w3.org/2000/svg" width="24" height="24" viewBox="0 0 24 24" fill="#fff">
    <g clip-path="url(#clip0_4418_4301)">
        <path opacity="0.4"
            d="M21.74 9.44H2V6.42C2 3.98 3.98 2 6.42 2H8.75C10.38 2 10.89 2.53 11.54 3.4L12.94 5.26C13.25 5.67 13.29 5.73 13.87 5.73H16.66C19.03 5.72 21.05 7.28 21.74 9.44Z"
            fill="white" style="fill: var(--fillg);" />
        <path
            d="M21.99 10.8404C21.97 10.3504 21.89 9.89043 21.74 9.44043H2V16.6504C2 19.6004 4.4 22.0004 7.35 22.0004H16.65C19.6 22.0004 22 19.6004 22 16.6504V11.0704C22 11.0004 22 10.9104 21.99 10.8404ZM14.43 16.3004H9.43C9.02 16.3004 8.68 15.9604 8.68 15.5504C8.68 15.1404 9.02 14.8004 9.43 14.8004H14.43C14.84 14.8004 15.18 15.1404 15.18 15.5504C15.18 15.9604 14.84 16.3004 14.43 16.3004Z"
            fill="white" style="fill: var(--fillg);" />
    </g>
    <defs>
        <clipPath id="clip0_4418_4301">
            <rect width="24" height="24" fill="white" />
        </clipPath>
    </defs>
</svg>