<svg width="496" height="496" viewBox="0 0 496 496" fill="none" xmlns="http://www.w3.org/2000/svg">
    <path
        d="M352 0C431.529 5.66954e-06 496 64.471 496 144V352C496 431.529 431.529 496 352 496H144C64.471 496 0 431.529 0 352V144C5.67101e-06 64.471 64.471 0 144 0H352ZM252.778 88C230.494 88 209.514 91.9928 189.836 99.9785C170.158 107.964 152.795 119.23 137.747 133.775C122.989 148.035 111.269 165.005 102.588 184.685C94.1959 204.078 90 225.184 90 248C90 270.816 94.1959 292.065 102.588 311.744C111.269 331.138 123.134 348.107 138.182 362.652C153.229 376.912 170.447 388.036 189.836 396.021C209.514 404.007 230.494 408 252.778 408C282.29 408 308.624 401.868 331.779 389.604C354.928 377.341 373.011 360.228 386.035 338.268C399.345 316.022 406 290.068 406 260.407V259.979C406 251.422 405.136 243.294 403.4 235.594H252.34V277.091H358.691C356.664 295.059 350.873 310.46 341.326 323.295C332.065 336.129 319.766 346.111 304.429 353.241C289.091 360.086 272.019 363.508 253.211 363.508C232.662 363.508 213.707 358.802 196.347 349.391C178.984 339.694 164.949 326.289 154.242 309.177C143.535 291.779 138.182 271.387 138.182 248C138.182 224.613 143.391 204.363 153.809 187.251C164.515 169.854 178.55 156.449 195.913 147.037C213.275 137.34 232.229 132.492 252.778 132.492C270.137 132.492 285.767 135.487 299.655 141.477C313.836 147.466 325.988 156.021 336.12 167.145L369.108 135.059C355.506 120.228 338.58 108.677 318.323 100.406C298.352 92.1353 276.506 88 252.778 88Z"
        fill="black" />
</svg>