<svg width="496" height="496" viewBox="0 0 496 496" fill="none" xmlns="http://www.w3.org/2000/svg">
  <path fill-rule="evenodd" clip-rule="evenodd"
    d="M352 0C431.529 5.66954e-06 496 64.471 496 144V352C496 431.529 431.529 496 352 496H144C64.471 496 0 431.529 0 352V144C5.67101e-06 64.471 64.471 0 144 0H352ZM109 311C109.615 312.662 110.274 314.49 111.056 316.09C134.943 365.002 185.459 397.891 239.775 401V400.995H256.929C271.259 400.224 287.621 396.71 301.126 391.601C302.704 391.005 305.056 390.448 306 389.096L231.191 369.34L229.494 343.327L109 311ZM95.7686 238C96.1831 238.913 95.34 239.96 95.292 240.384C94.7868 244.871 95.0394 252.847 95.292 257.515C95.2973 257.582 95.7489 258.057 95.7871 258.666C96.6689 272.194 98.8712 285.708 103.628 298.433L347.525 364C356.596 356.881 364.322 348.026 371 338.651L234.32 302.007L239.535 276.106L95.7686 238ZM115.939 172C106.429 188.689 99.9765 207.066 97 226.11L389.676 305C393.357 295.304 396.519 285.308 398 274.982L254.824 236.803L267.669 212.501V212.496L115.939 172ZM171.935 116C152.151 127.291 134.581 142.99 122 162.083L400 237L399.995 236.995V234.602L396.902 215.931C395.933 213.624 394.74 204.208 393.046 203.05L294.141 176.687L315.118 154.195L173.027 116.091L171.935 116ZM239.011 96C224.118 96.7944 208.885 100.511 194.742 105.329L187 108.762L370 157C369.866 155.752 368.61 154.456 367.836 153.468C341.394 119.679 299.59 98.8275 256.669 96H239.011Z"
    fill="black" />
</svg>