<svg width="496" height="496" viewBox="0 0 496 496" fill="none" xmlns="http://www.w3.org/2000/svg">
    <path
        d="M352 0C431.529 5.66954e-06 496 64.471 496 144V352C496 431.529 431.529 496 352 496H144C64.471 496 0 431.529 0 352V144C5.67101e-06 64.471 64.471 0 144 0H352ZM182.705 51.6172C178.638 49.7993 174.303 49.4748 170.094 50.8428C163.749 52.9128 158.306 57.4855 154.033 64.1094C150.109 70.1751 147.15 77.9508 145.141 87.2744C141.485 104.194 140.852 126.46 143.368 153.333C142.371 154.089 141.374 154.899 140.425 155.709C128.415 165.933 120.266 180.081 116.12 196.551C112.536 211.151 112.032 226.507 114.648 241.369L114.728 241.802C116.626 252.457 120.06 262.088 124.696 269.612L124.728 269.646L124.538 270.116C119.095 283.58 115.392 300.354 114.695 316.734C114.149 327.545 115.094 338.386 117.496 348.864L117.575 349.206C119.554 357.604 122.753 365.568 127.038 372.769L127.165 372.984L126.943 373.614C118.225 397.265 115.614 418.253 119.459 436.577C120.144 439.533 121.816 442.067 124.12 443.643C126.424 445.217 129.176 445.71 131.793 445.009C134.409 444.31 136.683 442.477 138.13 439.9C139.576 437.326 140.082 434.208 139.539 431.213C136.517 416.813 139.317 398.525 148.432 376.278C149.256 374.262 149.553 372.019 149.286 369.817C149.019 367.614 148.201 365.545 146.929 363.858L146.675 363.517C138.241 352.104 134.507 336.193 135.298 317.869C135.994 301.831 140.251 285.145 145.947 273.949C148.289 269.36 147.577 263.545 144.223 259.819L144.096 259.693C140.124 255.212 136.659 246.896 134.887 236.852C132.902 225.597 133.271 213.967 135.963 202.904C138.938 191.151 144.571 181.341 152.83 174.321C162.387 166.203 175.458 161.703 192.342 161.667C194.444 161.663 196.496 160.927 198.221 159.561C199.946 158.193 201.262 156.259 201.994 154.018C207.168 138.088 224.543 125.452 244.243 123.67C253.897 122.651 263.609 124.721 272.283 129.646C281.318 134.955 288.566 143.523 293.534 155.493C294.422 157.617 295.85 159.388 297.632 160.578C299.415 161.769 301.471 162.324 303.534 162.171C319.31 161.037 331.779 164.98 341.194 173.151C349.502 180.333 355.436 190.845 358.68 203.444C361.64 214.987 362.156 227.164 360.183 238.976C358.395 248.966 354.85 256.273 351.005 259.136L350.862 259.243C348.641 260.943 347.098 263.569 346.564 266.554C346.031 269.538 346.553 272.641 348.015 275.191C355.531 288.313 359.945 302.083 360.673 316.105C361.527 332.124 357.572 348.432 348.015 365.063L347.951 365.172C347.034 366.814 346.496 368.691 346.385 370.633C346.274 372.573 346.595 374.515 347.318 376.278C355.072 395.25 357.556 413.897 354.913 432.491C354.701 434.006 354.755 435.555 355.07 437.046C355.385 438.539 355.956 439.946 356.749 441.185C357.543 442.426 358.545 443.478 359.695 444.276C360.847 445.076 362.126 445.609 363.458 445.847C366.149 446.347 368.906 445.609 371.121 443.802C373.336 441.996 374.832 439.259 375.278 436.2L375.373 435.496C378.253 414.545 375.911 393.576 368.442 372.75L368.284 372.318L368.395 372.138C378.11 353.184 382.29 333.889 381.277 314.72L381.245 314.18C380.391 299.186 376.387 284.695 369.787 270.979L369.756 270.925L370.041 270.548C381.91 253.753 385.375 223.73 378.49 196.965C374.075 179.811 365.736 165.033 353.758 154.665L353.347 154.323L352.508 153.604C354.96 126.928 354.328 104.806 350.688 87.9941C348.679 78.6704 345.736 70.8947 341.812 64.8291C337.523 58.1872 332.08 53.6155 325.734 51.5635C321.525 50.1956 317.206 50.5195 313.14 52.3193C309.6 53.9819 306.419 56.5 303.819 59.6992C299.167 65.2251 295.227 73.0904 292.221 82.4502C289.246 91.6301 287.316 101.8 286.524 112.042C284.99 110.962 283.422 109.936 281.824 108.982C269.956 102.017 256.349 99.1903 242.582 100.45L241.774 100.522C230.372 101.655 219.315 105.559 209.353 111.97C208.609 101.53 206.646 91.1262 203.624 81.7305C200.618 72.3888 196.678 64.505 192.01 58.9971C189.209 55.6671 186.123 53.1472 182.705 51.6172ZM247.835 215.235C233.04 215.235 219.084 220.85 208.514 230.516C198.102 240.037 191.804 252.818 191.804 265.544C191.804 278.412 197.279 290.293 207.042 298.753C216.884 307.303 230.524 311.965 246.49 311.965C261.554 311.965 274.704 308.689 284.515 301.938C296.018 293.984 302.442 281.526 302.442 265.544C302.442 252.853 296.509 240.11 286.54 230.623C276.318 220.867 262.646 215.235 247.835 215.235ZM247.835 231.361C259.291 231.361 269.671 235.646 277.33 242.936C284.245 249.523 288.138 257.93 288.138 265.544C288.138 275.821 284.388 283.13 277.062 288.169C269.798 293.192 259.133 295.837 246.49 295.837C233.531 295.837 222.945 292.219 215.745 285.974C209.416 280.483 206.093 273.265 206.093 265.562C206.093 258.091 210.223 249.722 217.518 243.062C226.171 235.377 236.857 231.254 247.835 231.361ZM254.598 250.891C253.149 250.718 251.699 251.197 250.557 252.225L247.075 255.356L243.674 252.26C242.527 251.211 241.063 250.72 239.6 250.891C238.136 251.063 236.79 251.884 235.856 253.178C235.399 253.816 235.056 254.553 234.85 255.344C234.643 256.134 234.577 256.963 234.653 257.783C234.73 258.604 234.948 259.397 235.296 260.121C235.644 260.845 236.114 261.482 236.68 261.998L240.968 265.921V274.201C240.976 275.989 241.607 277.7 242.723 278.958C243.838 280.217 245.346 280.92 246.917 280.915C248.488 280.92 249.997 280.217 251.112 278.958C252.228 277.7 252.859 275.989 252.867 274.201V266.173L257.487 262.034C259.877 259.874 260.273 255.931 258.374 253.215L258.311 253.142C257.378 251.87 256.046 251.062 254.598 250.891ZM178.56 218.601C174.911 218.615 171.402 220.276 168.829 223.219C166.257 226.162 164.817 230.147 164.825 234.297C164.825 238.44 166.268 242.415 168.84 245.35C171.411 248.285 174.901 249.942 178.544 249.956C182.192 249.946 185.688 248.289 188.264 245.35C190.839 242.41 192.282 238.427 192.278 234.277C192.278 225.619 186.123 218.601 178.56 218.601ZM316.319 218.601C312.671 218.615 309.177 220.276 306.604 223.219C304.033 226.162 302.593 230.147 302.601 234.297C302.601 238.441 304.044 242.414 306.617 245.35C309.188 248.285 312.677 249.942 316.319 249.956C319.968 249.947 323.464 248.29 326.038 245.35C328.614 242.41 330.059 238.427 330.055 234.277C330.054 225.619 323.914 218.601 316.319 218.601ZM175.395 73.4326C176.01 73.8996 176.578 74.4429 177.088 75.0527C179.556 77.9866 182.136 83.1347 184.256 89.6865C188.607 103.222 190.206 119.8 188.26 133.678C187.421 135.082 186.646 136.504 185.918 137.979L185.617 138.592L185.459 138.609C177.468 139.131 170.046 140.571 163.242 142.875C161.786 122.157 162.514 105.256 165.204 92.7998C166.628 86.2301 168.527 81.2261 170.711 77.8242L170.79 77.7168C171.901 75.827 173.467 74.3395 175.3 73.4326L175.348 73.3965L175.395 73.4326ZM320.576 74.1348C322.412 75.0467 323.977 76.5397 325.086 78.4365L325.149 78.5449C327.349 81.9469 329.248 86.9508 330.672 93.5205C333.299 105.742 334.058 122.284 332.697 142.516C325.165 139.987 317.353 138.702 309.5 138.699H309.025L308.898 138.447L307.98 136.701C305.496 122.373 307.031 104.698 311.62 90.4062C313.725 83.8546 316.32 78.689 318.788 75.7549C319.298 75.1451 319.866 74.6017 320.481 74.1348L320.513 74.1162L320.576 74.1348Z"
        fill="black" />
</svg>