<svg width="496" height="496" viewBox="0 0 496 496" fill="none" xmlns="http://www.w3.org/2000/svg">
    <path
        d="M352 0C431.529 5.66954e-06 496 64.471 496 144V352C496 431.529 431.529 496 352 496H144C64.471 496 0 431.529 0 352V144C5.67101e-06 64.471 64.471 0 144 0H352ZM231.11 88.002C196.07 87.922 164.98 110.481 154.2 143.821C131.69 148.431 112.261 162.521 100.891 182.491C83.3006 212.811 87.3105 251.031 110.811 277.031C103.551 298.821 106.05 322.692 117.66 342.512C135.12 372.912 170.22 388.551 204.5 381.191C219.74 398.371 241.66 408.141 264.63 407.991C299.69 408.081 330.79 385.502 341.57 352.132C364.08 347.522 383.51 333.432 394.88 313.462C412.45 283.142 408.43 244.951 384.94 218.951L384.931 218.972C392.191 197.182 389.69 173.311 378.08 153.491C360.62 123.091 325.52 107.452 291.24 114.812C275.99 97.6316 254.08 87.862 231.11 88.002ZM324.04 251.981C324.33 252.121 324.521 252.402 324.561 252.722V327.111C324.521 360.191 297.73 387.011 264.65 387.081C250.62 387.101 237.03 382.191 226.26 373.201C226.75 372.941 227.6 372.472 228.15 372.132L291.87 335.331C295.13 333.481 297.13 330.012 297.11 326.262V236.432L324.04 251.981ZM282.53 316.101C282.512 316.377 282.369 316.636 282.15 316.812L217.74 354.002C189.05 370.522 152.41 360.702 135.82 332.052H135.811C128.781 319.912 126.25 305.681 128.66 291.871C129.13 292.151 129.96 292.662 130.55 293.002L194.271 329.802C197.5 331.692 201.5 331.692 204.74 329.802L282.53 284.882V316.101ZM289.44 183.991C289.71 183.811 290.051 183.781 290.351 183.911L354.771 221.102C383.45 237.672 393.28 274.361 376.71 303.041C369.7 315.181 358.66 324.481 345.51 329.321V253.512C345.54 249.772 343.55 246.311 340.311 244.451H340.3L262.51 199.531L289.44 183.991ZM150.25 166.672C150.25 167.222 150.22 168.191 150.22 168.871V242.481C150.2 246.221 152.2 249.691 155.45 251.541L233.24 296.451L206.311 312.002C206.041 312.182 205.7 312.211 205.4 312.081L140.98 274.861C112.351 258.281 102.53 221.652 119.03 192.972L119.04 192.962C126.04 180.802 137.09 171.502 150.25 166.672ZM282.521 227.991V268.002L247.87 288.002L213.22 268.002V228.002L247.87 207.991L282.521 227.991ZM231.141 108.922C245.15 108.922 258.711 113.842 269.48 122.802C268.99 123.062 268.15 123.531 267.59 123.871L203.87 160.672C200.61 162.522 198.61 165.982 198.63 169.731L198.59 259.521V259.541L171.65 243.991C171.361 243.851 171.17 243.572 171.13 243.252V168.861C171.15 135.741 198.021 108.902 231.141 108.922ZM278.021 142.012C306.71 125.462 343.391 135.312 359.931 164.012C366.919 176.128 369.448 190.313 367.081 204.1C366.608 203.808 365.792 203.317 365.21 202.981L301.49 166.182C298.26 164.292 294.26 164.292 291.021 166.182L213.23 211.102V179.882C213.249 179.606 213.392 179.347 213.61 179.172L278.021 142.012Z"
        fill="black" />
</svg>