<?xml version="1.0" encoding="UTF-8"?>
<svg id="Layer_2" data-name="Layer 2" xmlns="http://www.w3.org/2000/svg" viewBox="0 0 86.1 88.63">
  <g id="Layer_2-2" data-name="Layer 2">
    <g>
      <path d="M74.15,30.1c-2.04-7.67-7.5-17.62-21.88-21.4-3.24-.85-6.63-1.29-10.08-1.29h.01c-2.47-.01-4.99.21-7.47.65-6.28,1.11-11.57,3.25-15.7,6.35-3.53,2.65-6.26,6.01-8.11,10.01-3.32,7.17-3.05,14.71-2.6,18.56.35,2.95,1.44,5.7,3.17,7.94,4.9,6.36,14.89,9.07,33.43,9.07h.75c6.17-.02,11.54-.75,15.96-2.14,3.56-1.13,6.53-2.69,8.82-4.66,3.99-3.43,4.62-6.99,4.68-7.38.12-.77,1.15-7.75-.98-15.71ZM27.53,41.3c-1.97-.26-3.68-1.63-4.79-3.86-1.09-2.19-1.49-4.95-1.11-7.79.37-2.83,1.47-5.4,3.09-7.23,1.65-1.86,3.65-2.75,5.62-2.49,1.97.26,3.68,1.63,4.79,3.86,1.09,2.19,1.49,4.95,1.11,7.79-.37,2.83-1.47,5.4-3.09,7.23-1.46,1.65-3.2,2.53-4.94,2.53-.23,0-.45-.01-.68-.04ZM51.27,52.51c-2.07,1.4-5.68,1.38-6.81-1.37h-.02c-5.07,1.39-10.26-.3-11.34-5.94l-1.07.67c-.39.24-.81.38-1.24.04l2.32-2.16c.16-.15.68-.28.85-.19.6.33-.26,1.8.86,3.69,1.4,2.37,3.97,3.77,6.79,3.65,5.3-.22,7.01-3.41,7.32-8.42,1.09.23,1.92.99,2.7,1.79-.58.77-1.02.24-1.8-.15l-.07,1.63c1.44.66,2.48,1.65,2.85,3.07.38,1.46-.11,2.85-1.34,3.69ZM62.88,37.66c-1.19,2.19-2.94,3.49-4.93,3.68-.16.02-.33.02-.49.02-1.82,0-3.59-.95-5.04-2.72-1.55-1.89-2.55-4.5-2.82-7.34-.27-2.84.23-5.59,1.4-7.74,1.19-2.19,2.94-3.49,4.93-3.68,1.98-.19,3.95.77,5.53,2.7,1.55,1.89,2.55,4.5,2.82,7.34.27,2.84-.23,5.59-1.4,7.74Z"/>
      <path d="M49.46,46.6l-1.33,2.19c1.01.22,1.69.64,1.5,1.66-.16.87-1.37-.89-1.91-.86-.57.02-2.2.93-2.04,1.54h.01c.69,1.52,2.62,1.82,4.06,1.15,1.02-.48,1.91-1.12,1.85-2.35-.06-1.39-.82-2.61-2.14-3.33Z"/>
      <path d="M85.98,57.81c-.42-3.78-1.91-7.16-3.09-9.34-.08-.14-.15-.27-.22-.4v-6.99c0-5.55-1.09-10.93-3.23-15.99-2.07-4.88-5.03-9.28-8.81-13.06-4.68-4.68-10.46-8.19-16.74-10.16-1.61-.5-3.28-.91-4.96-1.22-2.43-.44-4.91-.66-7.37-.66-5.17,0-10.19,1.02-14.93,3.02-4.58,1.93-8.68,4.7-12.2,8.21-3.53,3.53-6.3,7.63-8.22,12.19-2,4.73-3.02,9.75-3.02,14.92v5.87c0,.72,0,1.48,0,2.28v2.34c-.41.66-.84,1.46-1.22,2.36C.67,54.19.01,57.07,0,59.75c-.02,3.63,1.16,6.8,3.52,9.42.45.5.96.97,1.49,1.43.85,2.99,2.86,7.87,3.35,8.58l.08.12c.56.82,1.19,1.57,1.86,2.24,4.57,4.57,10.66,7.09,17.14,7.09h31.02c6.47,0,12.55-2.52,17.14-7.1.61-.63,1.17-1.24,1.62-1.8l.1-.12c1.36-1.69,3.04-5.83,4.25-9.17.3-.29.59-.58.85-.88,2.88-3.19,4.08-7.15,3.56-11.76ZM75.79,78.33l-.1.11c-.44.54-.96,1.11-1.52,1.69-4.21,4.2-9.79,6.51-15.72,6.51h-31.02c-5.94,0-11.53-2.31-15.72-6.51-.59-.59-1.13-1.25-1.6-1.92l-.08-.12c-.4-.58-1.69-3.77-2.56-6.32.27-.06.53-.19.74-.41.02-.02.03-.04.05-.05,1.19-1.26,1.78-3.19,1.7-5.58-.14-4.51-1.75-10.14-4.78-16.72v-2.49c0-.79,0-1.57,0-2.29v-5.87c0-4.9.96-9.66,2.86-14.14,1.82-4.32,4.45-8.2,7.8-11.55,3.33-3.33,7.22-5.95,11.56-7.79,4.49-1.9,9.25-2.86,14.15-2.86,2.34,0,4.7.21,7.01.62,1.6.29,3.19.69,4.72,1.16,5.97,1.87,11.47,5.21,15.92,9.66,3.6,3.6,6.42,7.78,8.39,12.42,2.04,4.82,3.07,9.93,3.07,15.21v6.63l-.02.03c-.44.65-.84,1.34-1.16,2.06-1.95,4.37-3.3,8.24-4,11.51-.9,4.2-.66,7.38.72,9.45.59.89,1.78.99,2.77.9-1.08,2.81-2.3,5.56-3.19,6.67Z"/>
    </g>
  </g>
</svg>