<?xml version="1.0" encoding="UTF-8"?>
<svg id="Layer_2" data-name="Layer 2" xmlns="http://www.w3.org/2000/svg" viewBox="0 0 367.37 556.76">
  <g id="Layer_1-2" data-name="Layer 1">
    <path d="M272.92,189.77c97.5-6.81,131.83,129.71,41.87,169.88-27.38,12.23-49.12,2.8-75.89,11.11s-52.49,33.69-58.92,62.08c-3.22,14.18-.86,26.97-1.99,41.01-5.43,67.21-79.95,105.37-137.4,68.66-64.4-41.15-48.54-141.1,25.54-160.52,21.29-5.58,41.37.47,63.43-6.57,28.32-9.04,53.14-35.51,59.29-64.71,3.63-17.28-.88-33.98,2.77-51.23,8.17-38.7,42.11-66.95,81.31-69.69Z"/>
    <path d="M267.91.76c96.89-9.85,136.78,117.19,56.51,164.51-31.42,18.52-53.47,6.85-84.07,15.93-28.59,8.49-53.87,32.79-60.74,62.26-4.5,19.3.5,36.23-4.17,55.83-15.34,64.5-94.64,89.8-144.85,46.2C-26.52,295.91,1.33,201.47,75.76,190.61c18.28-2.67,32.35,1.9,51.37-3.63,28.66-8.33,51.95-32.34,60.01-60.99,6.2-22.06-.4-42.82,6.95-65.05C204.52,29.38,234.51,4.16,267.91.76Z"/>
    <path d="M153.67,150.06C106.24,201.04,18.87,178.09,2.61,110.48-15.68,34.45,65.74-27.17,133.79,12.3c49.54,28.73,58.9,95.83,19.88,137.76Z"/>
    <path d="M266.91,379.76c65.26-6.67,115,50.86,96.47,114.47-21.19,72.77-122.1,84.69-161.07,19.54-32.24-53.9,1.68-127.58,64.6-134.01Z"/>
  </g>
</svg>