<?xml version="1.0" encoding="UTF-8"?>
<svg id="Layer_2" data-name="Layer 2" xmlns="http://www.w3.org/2000/svg" viewBox="0 0 721.84 939.22">
  <g id="Layer_1-2" data-name="Layer 1">
    <path d="M364.59.02c2.91-.28,6.7,1.93,9.17,3.38,36.8,30.98,82.23,55.76,114.06,91.94,14.07,15.99,26.44,33.57,40.05,49.95,34.14,41.09,72.55,71.63,75.97,129.03.99,16.72-3.75,39.15,7.03,52.97,9.97,12.77,22.57,22.78,32.79,37.21,31.52,44.5,31.91,86.8,49.44,135.56,18.28,50.84,34.76,78.47,26.58,136.09-6.37,44.83-18.37,115.29-48.32,149.68-45.48,52.21-142,125.61-208.75,144.25-43.15,12.05-132.11,10.64-177.12,4.6-72.18-9.69-168.16-78.1-217.16-130.84-40.33-43.42-52.47-109.35-65-166-12.55-56.78,13.29-96.31,27.02-148,11.56-43.51,8.22-84.74,44.48-117.52,9.32-8.43,20.68-13.16,24.72-26.28,5.84-18.94,4.05-50.89,6.3-71.7,5.65-52.21,59.84-45.36,79.16-86.84,16.58-35.57,13.37-49.94,44.3-79.7,22.84-21.98,49.25-43.13,74.07-62.93,15.26-12.18,37.56-32.03,53.55-41.45,2-1.18,5.43-3.17,7.65-3.38ZM344.85,328.81c-.02-2.54.85-4.93,1.05-7.46,3.55-46.36-2.7-97.25-.09-144.09-.69-35.36,4.46-77.13,1.11-112.01-.22-2.26-.1-4.11-2.55-5.18-18.06,12.26-36.1,24.92-52.99,38.76-22.11,18.11-68.07,56.59-57.98,88.93,3.96,12.7,23.49,27.9,32.97,38.03,20.59,22.03,41.74,44.56,57.9,70.1,5.75,9.09,11.84,23.65,17.76,31.24.86,1.11,1,2.08,2.82,1.67ZM386.84,289.81c15.32-29.83,36.13-56.31,54.04-84.47,20.58-32.35,39.23-62.08,10-96.05-11.63-13.52-45.86-40.63-61.69-48.31-1.21-.59-2.28-1.35-3.73-1.23-1.39.25-1.59,9.59-1.66,11.51-1.57,42.43.36,86.45.1,129.1-.16,25.76-2.41,52.12-1.08,78.01.06,1.23.6,13.86,4.01,11.43ZM497.62,187.01c-7.93,1.13-21.61,21.96-26.18,28.89-24.88,37.71-49.48,83.49-68.44,124.56-15.15,32.82-19.94,50.15-21.18,86.82-.54,16.12-1.7,41.7,0,57.09.17,1.51.1,2.48,1.55,3.43,13.44-15.41,24.65-32.6,37.52-48.46,17.41-21.45,36.38-41.59,56.96-60.04,23.43-21,75.71-55.31,85.76-83.24,14.86-41.28-6.96-67.75-36.73-92.76-6.81-5.72-20.19-17.59-29.25-16.29ZM198.63,237.09c-25.5.33-53.4,17.46-60.06,42.95-3.79,14.52-2.48,45.53,4.42,59.14,9.19,18.11,56.61,43.43,75.17,56.83,42.89,30.95,82.95,68.81,115.67,110.33,2.82,2.87,4.63,1.8,5.06-1.96,1.76-15.12-.11-37.12-.09-53.09,0-2.58,1.07-5.05,1.08-7.91.18-43.06-26.46-94.02-49.63-129.47-18.75-28.69-53.94-77.3-91.64-76.82ZM571.65,361.12c-39.43,3.66-106.43,78.1-129.18,109.81-28.02,39.05-50.12,83.28-56.48,131.52-1.35,10.21-4.26,32.54-3.14,41.9.26,2.19.72,4.03,2.53,5.48,1.5.34,2.11-1.29,2.89-2.1,10.51-10.85,20.29-26.24,31.08-37.92,44.95-48.63,107.88-87.67,170.26-109.74,13.29-4.7,39.2-9.25,47.7-20.3,7.4-9.62,3.24-24.04,1.24-35.13-6.36-35.23-20.96-87.78-66.89-83.52ZM335.87,660.82c2.18-.78,2.75-2.34,3.03-4.45,1.99-14.67.07-46.11-3.35-60.76-15.08-64.55-114.19-156.8-171.68-187.32-27.53-14.62-59.45-23.95-79.22,7.83-10.1,16.23-15.15,52.12-2.31,67.7,12.17,14.77,61.51,32.04,80.87,41.13,27.09,12.73,53.47,26.82,77.96,44.04,35.39,24.89,69.07,57.09,94.7,91.82ZM625.65,532.12c-85.88,7.04-198.62,107.97-231.97,185.03-14.41,33.29-12.45,71.14-13.86,107.13-.2,5.12,0,14.66,5.06,6.07,5.24-8.88,9.51-19.9,14.81-29.19,36.1-63.38,101.94-128.82,175.16-144.84,25.22-5.52,66.53-4.88,87.68-15.32,25.47-12.56,19.19-48.2,13.84-71.19-7.21-30.98-18.01-40.37-50.71-37.69ZM336.86,845.32v-101c-41.33-88.21-116.18-165.05-210.21-195.79-22.64-7.4-64.52-20.17-75.8,8.77-9.82,25.19-10.55,84.54,4.2,107.84,20.73,32.74,91.92,44.29,127.61,56.39,65.74,22.29,116.74,64.6,151.18,124.82l3.03-1.03ZM412.01,889.67c21.45-1.02,43.06-8.91,62.53-17.68,28.48-12.83,57.44-31.09,83.05-48.95,36.74-25.64,99.82-71.08,105.17-118.83,1.86-16.61-1.47-19.19-17.41-20.38-67.63-5.06-117.12,26.49-161,73.97-27.12,29.35-63.21,82.91-71.99,122-.73,3.24-2.1,6.76-.34,9.87ZM244.51,799.16c-43.99-42.57-107.24-56.83-165.29-69.31-8.26-.09-2.55,10.65-.54,14.64,14.92,29.54,56.73,62.32,83.85,81.15,35.13,24.39,82.1,50.94,124.13,59.87,3.33.71,17.17,4.8,17.2-.14.01-1.9-7.3-15.42-8.84-18.22-13.14-23.87-30.94-49.03-50.52-67.98Z"/>
  </g>
</svg>