<?xml version="1.0" encoding="UTF-8"?>
<svg id="Layer_2" data-name="Layer 2" xmlns="http://www.w3.org/2000/svg" viewBox="0 0 346.89 334.51">
  <g id="Layer_1-2" data-name="Layer 1">
    <g>
      <path d="M230.86,173.06c.39.69,4.1,2.25,5.24,2.28,8.26.22,20.94-12.5,28.23-16.87,22.92-13.72,54.28-18.33,72.72,4.89,32.98,41.52-25.04,94.36-55.52,118.31-56.47,44.38-140.78,69.87-209.57,39.78C-33.48,275.31-4.33,129.43,41.46,49.59,48.24,37.78,68.85,4.01,81.61.74c13.62-3.49,20.87,5.82,18.79,18.79-2.47,15.35-23.43,43.39-31.3,58.69-29.8,57.88-58.69,174.44,17.87,208.22,69.04,30.46,164.94-16.28,210.7-69.65,6.08-7.09,20.2-28.81,4-33.05s-34.43,16.39-49.77,22.29c-47.68,18.32-75.43-24.06-52.07-66.07,9.89-17.79,51.06-74.66,67.11-83.89,6.07-3.49,13.82-5.94,20.2-1.81,13.57,8.78.68,28.87-5.69,38.32-9.24,13.71-21,26.75-30.63,40.37-4.84,6.85-24.33,32.41-19.96,40.11Z"/>
      <path d="M74.39,206.46c6.02-1.16,18.65,10.09,25.97,12.59,20.64,7.06,29.6-1.24,46.58-7.98,22.11-8.78,38.58,20.67,15.39,35.39-28.75,18.25-82.17,19.96-95.87-17.52-2.9-7.93-2.01-20.58,7.93-22.49Z"/>
      <path d="M131.97,162.93c-4.86-4.99-3.29-11.6-1.62-17.44,2.48-8.63,18.27-44.36,23.43-50.57,13.66-16.42,40.04-3.92,33.37,17.38-2.38,7.6-24.26,43.48-29.98,49.01-6.85,6.63-17.97,9.04-25.21,1.62Z"/>
      <path d="M106.42,73.5c12.93-1.41,21.92,9.35,19.97,22.03-1.06,6.93-17.84,40.82-22.34,47.65-5.65,8.58-13.47,13.12-22.9,6.08-13.17-9.83-2.11-36.64,2.74-49.24,4.18-10.84,8.89-25.03,22.53-26.52Z"/>
    </g>
  </g>
</svg>